<svg xmlns="http://www.w3.org/2000/svg" width="680.34" height="453.54" viewBox="0 0 680.34 453.54"><title>BandeiraNacional_cmyk</title><polygon points="272.14 0 680.34 0 680.34 453.54 272.14 453.54 272.14 0 272.14 0" style="fill:#ed1c24;fill-rule:evenodd"/><polygon points="0 0 272.14 0 272.14 453.54 0 453.54 0 0 0 0" style="fill:#006035;fill-rule:evenodd"/><path d="M360.85,297.11c-34.26-1-191.34-99.08-192.41-114.68L177.11,168C192.7,190.6,353.28,286,369.05,282.57l-8.2,14.54Z" style="fill:#fff200;fill-rule:evenodd"/><path d="M175.29,166c-3.07,8.27,41,35.51,94,67.75S368,285.92,371.41,283.06a30,30,0,0,0,1.53-2.86c-.64,1-2.18,1.26-4.59.56-14.32-4.13-51.68-21.28-97.94-49.33s-86.51-53.91-92.77-64.89a6.66,6.66,0,0,1-.68-3.23h-.15l-1.33,2.33-.18.37ZM361.67,297.57c-.58,1.06-1.66,1.09-3.72.86-12.81-1.42-51.69-20.32-97.7-47.86-53.53-32-97.75-61.24-92.94-68.88l1.31-2.31.26.08c-4.31,12.93,87.25,65.28,92.64,68.62,53,32.82,97.65,52,101.6,47l-1.44,2.47Z" style="fill:#fff200;stroke:#231f20;stroke-linecap:round;stroke-linejoin:round;stroke-width:0.6479318141937256px;fill-rule:evenodd"/><path d="M272.33,191.88c34.29-.27,76.6-4.69,100.94-14.39L368,169c-14.39,8-56.93,13.2-96,14-46.19-.43-78.8-4.73-95.13-15.69l-5,9.08c30,12.71,60.8,15.41,100.37,15.54Z" style="fill:#fff200;fill-rule:evenodd"/><path d="M374.69,177.69c-.84,1.34-16.72,6.82-40.11,10.86a414.86,414.86,0,0,1-62.37,4.51,442.38,442.38,0,0,1-59.74-3.78c-24.56-3.85-37.23-9.21-41.92-11.1.45-.89.74-1.52,1.17-2.35a181.4,181.4,0,0,0,41.14,10.9,437,437,0,0,0,59.28,3.79,416.37,416.37,0,0,0,61.93-4.6c24-3.87,37.09-8.85,38.93-11.16l1.69,2.92ZM370.08,169c-2.6,2.09-15.55,6.68-38.35,10.32a412.61,412.61,0,0,1-59.26,4.16,399.14,399.14,0,0,1-57.25-3.68c-23.15-3-35.47-8.48-39.91-10.07.44-.76.89-1.52,1.35-2.28,3.46,1.74,15.35,6.57,38.81,9.89a410.33,410.33,0,0,0,57,3.54,407.54,407.54,0,0,0,58.83-4.18c22.91-3.15,35.24-9,37.11-10.48l1.67,2.78Z" style="fill:#fff200;stroke:#231f20;stroke-linecap:round;stroke-linejoin:round;stroke-width:0.6498136520385742px"/><path d="M159.75,233.18c21.09,11.34,67.93,17.06,112.25,17.45,40.36.06,92.93-6.24,112.59-16.66L384,222.63c-6.15,9.61-62.49,18.83-112.49,18.46S175.13,233,159.66,223l.09,10.2Z" style="fill:#fff200;fill-rule:evenodd"/><path d="M385.67,231.55v2.71c-3,3.53-21.48,8.87-44.72,12.63-17.68,2.71-40.74,4.76-69.47,4.76-27.29,0-49.06-1.94-65.93-4.54-26.68-3.88-43.74-10.69-47.17-12.72v-3.16c10.29,6.84,38.17,11.85,47.53,13.38,16.77,2.58,38.4,4.51,65.56,4.51,28.59,0,51.52-2,69.09-4.73,16.67-2.41,40.42-8.67,45.09-12.84Zm0-9.63v2.71c-3,3.53-21.48,8.87-44.72,12.63C323.28,240,300.22,242,271.5,242c-27.29,0-49.06-1.94-65.93-4.54-26.68-3.88-43.74-10.69-47.17-12.72l0-3.16c10.29,6.84,38.17,11.85,47.53,13.38,16.77,2.58,38.4,4.51,65.56,4.51,28.59,0,51.52-2,69.09-4.73,16.67-2.41,40.42-8.67,45.09-12.84Z" style="fill:#fff200;stroke:#231f20;stroke-linecap:round;stroke-linejoin:round;stroke-width:0.6495310068130493px"/><path d="M271.9,295.17c-48.5-.29-90.06-13.22-98.83-15.36l6.4,10c15.5,6.52,56,16.24,92.9,15.16s69.07-3.93,91.76-15l6.56-10.38c-15.47,7.28-68.11,15.46-98.79,15.54Z" style="fill:#fff200;fill-rule:evenodd"/><path d="M366.59,287.68c-1,1.47-1.95,2.93-2.94,4.34A258.33,258.33,0,0,1,329,300.92c-14.54,3-37,5.21-57,5.22-43-.63-78.13-9-94.68-16.21l-1.33-2.3.22-.35,2.26.88c29.42,10.52,62.47,14.72,93.77,15.48a319.68,319.68,0,0,0,55.89-5.16c24.69-4.95,34.67-8.67,37.73-10.36l.78-.44Zm5.69-9.38.07.09c-.72,1.22-1.46,2.46-2.23,3.7-5.71,2-21.21,6.57-43.84,9.74-14.91,2-24.18,4-53.84,4.58-55.58-1.41-91.56-12.28-100.11-15L171.08,279c32.21,8.41,65.11,14.28,101.38,14.88,27.14-.58,38.68-2.58,53.47-4.59,26.39-4.1,39.68-8.45,43.67-9.7l-.18-.23,2.86-1.07Z" style="fill:#fff200;stroke:#231f20;stroke-linecap:round;stroke-linejoin:round;stroke-width:0.6495494842529297px"/><path d="M272,125.92c55.69,0,100.66,45.28,100.66,101A100.74,100.74,0,1,1,272,125.92Zm0-10c61,0,110.79,49.78,110.79,110.81S333,337.56,272,337.56,161.17,287.78,161.17,226.75,210.93,115.94,272,115.94Z" style="fill:#fff200;fill-rule:evenodd"/><path d="M272,114.61c61.84,0,112.27,50.44,112.27,112.28S333.87,339.16,272,339.16,159.76,288.72,159.76,226.88,210.2,114.61,272,114.61Zm0,2.47c60.21,0,109.8,49.42,109.8,109.81S332.24,336.69,272,336.69s-109.8-49.42-109.8-109.81S211.83,117.08,272,117.08Z" style="fill:#fff200;stroke:#231f20;stroke-linecap:round;stroke-linejoin:round;stroke-width:0.6495310068130493px;fill-rule:evenodd"/><path d="M272.13,123.94c56.39,0,102.84,46.28,102.84,102.84S328.52,329.63,272.13,329.63,169.29,283.35,169.29,226.78s46.45-102.84,102.84-102.84Zm0,2.47c55,0,100.37,45.17,100.37,100.37S327.17,327.16,272.13,327.16,171.76,282,171.76,226.78,217.1,126.41,272.13,126.41Z" style="fill:#fff200;stroke:#231f20;stroke-linecap:round;stroke-linejoin:round;stroke-width:0.6495310068130493px;fill-rule:evenodd"/><polygon points="267.49 114.08 277.26 114.08 277.26 339.99 267.49 339.99 267.49 114.08 267.49 114.08" style="fill:#fff200;fill-rule:evenodd"/><path d="M268.76,114.16h6.82m-6.81,225.59h6.86" style="fill:none;stroke:#231f20;stroke-linecap:round;stroke-linejoin:round;stroke-width:0.6495310068130493px"/><path d="M275.68,112.87h2.45l0,228.19H275.7l0-228.19Zm-9.55,0h2.47V341.06h-2.47V112.87Z" style="fill:#fff200;stroke:#231f20;stroke-linecap:round;stroke-linejoin:round;stroke-width:0.6496841907501221px;fill-rule:evenodd"/><path d="M159.36,222.1c14.08-13,66-21.36,112.11-21.15S372.14,210.64,384,221.83l.12,9.67c-9.94-9.35-52.35-20.51-112.57-20.63S167.62,222.2,159.36,231.74V222.1Z" style="fill:#fff200;fill-rule:evenodd"/><path d="M159.34,222.55v8.34m225.05-8v8.34" style="fill:none;stroke:#231f20;stroke-linecap:round;stroke-linejoin:round;stroke-width:0.6508455276489258px"/><path d="M272.09,209.5c26.51,0,52.24,2.51,72.64,6.48,21.06,4.21,35.87,9.48,40.94,15.39v2.93c-6.11-7.36-26-12.75-41.41-15.84C324,214.52,298.45,212,272.09,212c-27.82.05-53.73,2.69-73.69,6.58-16,3.18-37.36,9.49-40,15.71v-3.05c1.46-4.31,17.36-10.75,39.67-15.21,20.1-3.92,46.06-6.51,74-6.56Zm0-9.63c26.51,0,52.24,2.51,72.64,6.48,21.06,4.21,35.87,9.48,40.94,15.39v2.93c-6.11-7.36-26-12.75-41.41-15.84-20.25-3.94-45.8-6.48-72.17-6.43-27.82.05-53.61,2.69-73.56,6.58-15.45,2.93-37.68,9.49-40.15,15.71v-3.05c1.46-4.26,17.69-10.93,39.67-15.21,20.1-3.92,46.06-6.51,74-6.56Z" style="fill:#fff200;stroke:#231f20;stroke-linecap:round;stroke-linejoin:round;stroke-width:0.6495310068130493px"/><path d="M271.55,150.76c41.78-.21,78.23,5.84,94.9,14.38l6.08,10.52c-14.49-7.81-53.81-15.93-100.92-14.72-38.39.24-79.4,4.23-100,15.21L178.88,164c16.89-8.76,56.72-13.2,92.66-13.25Z" style="fill:#fff200;fill-rule:evenodd"/><line x1="367.51" y1="166.84" x2="371.65" y2="173.49" style="fill:none;stroke:#231f20;stroke-linecap:round;stroke-linejoin:round;stroke-width:0.6494889855384827px"/><path d="M272.1,159.45c23.83-.06,46.86,1.28,65.17,4.59,17.06,3.17,33.32,7.94,35.65,10.5l1.8,3.19c-5.66-3.69-19.73-7.8-37.8-11.23s-41.16-4.54-64.86-4.48c-26.9-.09-47.8,1.33-65.73,4.45-19,3.55-32.13,8.62-35.38,11l1.77-3.37C179,170.9,189,167,205.85,164c18.55-3.39,39.67-4.41,66.25-4.55Zm0-9.62c22.81-.06,45.33,1.21,62.88,4.37,13.84,2.7,27.53,6.9,32.55,10.65l2.64,4.19c-4.48-5-21.36-9.7-36.26-12.35-17.42-3-39-4.19-61.81-4.38-23.93.06-46.05,1.53-63.22,4.66-16.38,3.11-26.94,6.8-31.41,9.68l2.32-3.5c6.17-3.25,16.14-6.23,28.69-8.67,17.29-3.15,39.55-4.58,63.62-4.64Z" style="fill:#fff200;stroke:#231f20;stroke-linecap:round;stroke-linejoin:round;stroke-width:0.6498136520385742px"/><path d="M327.87,273.56c-20.66-3.86-41.35-4.42-55.81-4.25-69.63.82-92.12,14.3-94.87,18.38l-5.2-8.48c17.73-12.85,55.64-20.06,100.45-19.32,23.27.38,43.34,1.93,60.23,5.2l-4.8,8.47Z" style="fill:#fff200;fill-rule:evenodd"/><line x1="173.14" y1="280.38" x2="176.56" y2="286.26" style="fill:none;stroke:#231f20;stroke-linecap:round;stroke-linejoin:round;stroke-width:0.6495310068130493px"/><path d="M271.66,268.11c19.37.29,38.38,1.09,56.73,4.51L327.07,275c-17-3.15-35.21-4.35-55.34-4.25-25.7-.2-51.69,2.2-74.32,8.69-7.14,2-19,6.58-20.17,10.37l-1.32-2.18c.38-2.24,7.53-6.89,20.88-10.65,25.92-7.42,50.16-8.67,74.86-8.84Zm.88-9.75c20.07.37,40.79,1.3,60.94,5.29l-1.38,2.44c-18.19-3.61-35.57-4.81-59.43-5.18-25.78,0-53.12,1.88-78,9.11-8,2.34-21.88,7.39-22.34,11.39L171,279.09c.3-3.64,12.3-8.38,23.08-11.52,25.06-7.28,52.47-9.16,78.45-9.2Z" style="fill:#fff200;stroke:#231f20;stroke-linecap:round;stroke-linejoin:round;stroke-width:0.6495494842529297px"/><path d="M251.75,265.16a1.34,1.34,0,0,1,.34-.84,1.1,1.1,0,0,1,.73-.35.87.87,0,0,1,.5.09.7.7,0,0,1,.32.36,1.16,1.16,0,0,1,.07.55,1.4,1.4,0,0,1-.17.58,1.1,1.1,0,0,1-.39.41,1.14,1.14,0,0,1-.51.17.85.85,0,0,1-.5-.1.71.71,0,0,1-.31-.36,1.09,1.09,0,0,1-.07-.51Zm.28,0a.74.74,0,0,0,.15.58.55.55,0,0,0,.48.17.77.77,0,0,0,.52-.26,1,1,0,0,0,.25-.64,1,1,0,0,0,0-.44.52.52,0,0,0-.22-.27.59.59,0,0,0-.36-.07.81.81,0,0,0-.51.24,1.06,1.06,0,0,0-.26.69Zm2.65.33.25-.05a.3.3,0,0,0,.09.23.35.35,0,0,0,.26.07.44.44,0,0,0,.26-.08.26.26,0,0,0,.1-.17.13.13,0,0,0-.06-.13.89.89,0,0,0-.25-.07,2,2,0,0,1-.37-.1.29.29,0,0,1-.14-.14.35.35,0,0,1,0-.2.44.44,0,0,1,.07-.19.52.52,0,0,1,.14-.15.63.63,0,0,1,.17-.08.82.82,0,0,1,.22,0,.78.78,0,0,1,.3,0,.33.33,0,0,1,.18.13.47.47,0,0,1,.06.23l-.25,0a.23.23,0,0,0-.08-.18.31.31,0,0,0-.22-.05.45.45,0,0,0-.25.07.21.21,0,0,0-.09.14.13.13,0,0,0,0,.09.18.18,0,0,0,.09.06l.21.05.36.1a.3.3,0,0,1,.15.13.34.34,0,0,1,0,.22.51.51,0,0,1-.1.25.6.6,0,0,1-.23.19.84.84,0,0,1-.32.08.6.6,0,0,1-.42-.1.47.47,0,0,1-.15-.35Zm2.55-.18.25,0a.81.81,0,0,1-.27.37.77.77,0,0,1-.44.15.57.57,0,0,1-.49-.18.71.71,0,0,1-.12-.56,1,1,0,0,1,.26-.6.76.76,0,0,1,.52-.24.53.53,0,0,1,.46.18.74.74,0,0,1,.12.57v.07l-1.1.05a.51.51,0,0,0,.09.37.34.34,0,0,0,.29.12.44.44,0,0,0,.24-.09.61.61,0,0,0,.18-.24Zm-.77-.37.82,0a.46.46,0,0,0-.06-.28.32.32,0,0,0-.29-.13.46.46,0,0,0-.3.13.57.57,0,0,0-.17.32Zm1.24.93.24,0a.2.2,0,0,0,.06.16.36.36,0,0,0,.25.06.5.5,0,0,0,.28-.08.44.44,0,0,0,.15-.21,1.76,1.76,0,0,0,.06-.33.61.61,0,0,1-.43.22.46.46,0,0,1-.45-.2.78.78,0,0,1-.1-.53,1.15,1.15,0,0,1,.12-.4.79.79,0,0,1,.26-.29.68.68,0,0,1,.35-.12.44.44,0,0,1,.41.2l0-.18h.23l-.15,1.31a1.41,1.41,0,0,1-.13.5.67.67,0,0,1-.25.24.85.85,0,0,1-.38.1.61.61,0,0,1-.41-.1.36.36,0,0,1-.11-.36Zm.31-.92a.6.6,0,0,0,.07.43.3.3,0,0,0,.27.12.44.44,0,0,0,.3-.15.75.75,0,0,0,.17-.43.56.56,0,0,0-.07-.41.31.31,0,0,0-.27-.13.43.43,0,0,0-.3.15.73.73,0,0,0-.16.42Zm1.31.71.2-1.51h.22l0,.21a.68.68,0,0,1,.21-.18.57.57,0,0,1,.27-.08.42.42,0,0,1,.26.06.3.3,0,0,1,.12.19.64.64,0,0,1,.49-.28.38.38,0,0,1,.32.11.48.48,0,0,1,.07.38l-.14,1h-.25l.13-1a.7.7,0,0,0,0-.22.17.17,0,0,0-.07-.11.24.24,0,0,0-.14,0,.41.41,0,0,0-.27.11.56.56,0,0,0-.15.34l-.12.88h-.25l.13-1a.4.4,0,0,0,0-.25.19.19,0,0,0-.19-.08.4.4,0,0,0-.2.06.41.41,0,0,0-.15.17,1.06,1.06,0,0,0-.08.32l-.1.79Zm3.45-.63.25,0a.81.81,0,0,1-.27.37.77.77,0,0,1-.44.14.56.56,0,0,1-.49-.19.72.72,0,0,1-.11-.57,1,1,0,0,1,.27-.6.76.76,0,0,1,.52-.23.52.52,0,0,1,.45.19.74.74,0,0,1,.11.58v.07l-1.1,0a.51.51,0,0,0,.09.38.34.34,0,0,0,.29.12.43.43,0,0,0,.24-.08.61.61,0,0,0,.19-.24Zm-.76-.39.82,0a.46.46,0,0,0-.06-.28.32.32,0,0,0-.29-.14.46.46,0,0,0-.31.13.57.57,0,0,0-.17.32Zm1.28.86.2-1.51h.22l0,.21a.63.63,0,0,1,.5-.26.55.55,0,0,1,.24,0,.3.3,0,0,1,.15.12.43.43,0,0,1,.05.19,1.56,1.56,0,0,1,0,.25l-.12.93h-.25l.12-.92a.68.68,0,0,0,0-.23.19.19,0,0,0-.09-.12.28.28,0,0,0-.17,0,.47.47,0,0,0-.29.11.61.61,0,0,0-.17.4l-.11.83Zm2.16-.29v.23l-.19,0a.37.37,0,0,1-.2,0,.19.19,0,0,1-.09-.11.92.92,0,0,1,0-.3l.13-.87h-.18l0-.2h.18l.06-.38.27-.16-.08.53h.25l0,.2h-.25l-.13.89a.46.46,0,0,0,0,.14.09.09,0,0,0,0,0l.08,0Zm.23-.55A.94.94,0,0,1,266,264a.78.78,0,0,1,.49-.17.55.55,0,0,1,.46.2.7.7,0,0,1,.11.56,1.15,1.15,0,0,1-.15.46.78.78,0,0,1-.29.26.8.8,0,0,1-.37.1.55.55,0,0,1-.47-.2.74.74,0,0,1-.1-.58Zm.26,0a.59.59,0,0,0,.06.43.33.33,0,0,0,.29.14.46.46,0,0,0,.33-.15.79.79,0,0,0,.19-.45.58.58,0,0,0-.06-.42.33.33,0,0,0-.29-.14.46.46,0,0,0-.33.15.76.76,0,0,0-.19.44Zm3.17.24.25,0a.81.81,0,0,1-.28.36.76.76,0,0,1-.44.13.56.56,0,0,1-.48-.2.72.72,0,0,1-.1-.57,1,1,0,0,1,.28-.6.75.75,0,0,1,.53-.22.52.52,0,0,1,.45.2.75.75,0,0,1,.1.58v.07l-1.1,0a.52.52,0,0,0,.08.38.34.34,0,0,0,.29.13.43.43,0,0,0,.24-.08.62.62,0,0,0,.19-.24Zm-.76-.4h.82a.46.46,0,0,0-.05-.28.32.32,0,0,0-.29-.14.46.46,0,0,0-.31.12.57.57,0,0,0-.18.32Zm1.23.85.35-2.09h.25l-.35,2.09Zm.94-1.8,0-.3h.25l0,.3Zm-.3,1.79.25-1.51h.25l-.25,1.51Zm.63,0,.25-1.51h.22l0,.21a.67.67,0,0,1,.21-.18.56.56,0,0,1,.27-.07.41.41,0,0,1,.26.07.3.3,0,0,1,.11.2.63.63,0,0,1,.5-.26.37.37,0,0,1,.31.13.49.49,0,0,1,.05.38l-.17,1h-.25l.16-1a.72.72,0,0,0,0-.22.18.18,0,0,0-.07-.11.24.24,0,0,0-.14,0,.4.4,0,0,0-.27.11.56.56,0,0,0-.16.34l-.15.88h-.25l.16-1a.41.41,0,0,0,0-.26.19.19,0,0,0-.18-.09.4.4,0,0,0-.2.06.4.4,0,0,0-.16.17,1.07,1.07,0,0,0-.09.32l-.13.79Zm2.66-1.79,0-.3h.25l0,.3Zm-.3,1.79.25-1.51h.25l-.25,1.51Zm.63,0,.28-1.51h.22l0,.21a.62.62,0,0,1,.51-.24.54.54,0,0,1,.23.05.3.3,0,0,1,.14.13.44.44,0,0,1,0,.19,1.65,1.65,0,0,1,0,.25l-.17.93h-.25l.17-.92a.71.71,0,0,0,0-.24.2.2,0,0,0-.08-.13.28.28,0,0,0-.16-.05.46.46,0,0,0-.29.1.62.62,0,0,0-.19.39l-.15.83Zm2.55-.13a1.15,1.15,0,0,1-.3.17.81.81,0,0,1-.28,0,.45.45,0,0,1-.35-.13.36.36,0,0,1-.07-.31.48.48,0,0,1,.09-.2.52.52,0,0,1,.15-.14.71.71,0,0,1,.19-.08l.23,0a2.38,2.38,0,0,0,.46-.08v-.07a.26.26,0,0,0,0-.22.35.35,0,0,0-.27-.09.48.48,0,0,0-.27.06.49.49,0,0,0-.16.22l-.24,0a.77.77,0,0,1,.16-.26.59.59,0,0,1,.25-.15,1,1,0,0,1,.34,0,.79.79,0,0,1,.3.05.32.32,0,0,1,.15.12.36.36,0,0,1,0,.18,1.61,1.61,0,0,1,0,.24l-.06.34a3.74,3.74,0,0,0-.07.45.52.52,0,0,0,0,.18h-.26a.51.51,0,0,1,0-.19Zm.08-.57a2,2,0,0,1-.42.09l-.23,0a.27.27,0,0,0-.17.2.19.19,0,0,0,0,.17.27.27,0,0,0,.21.07.55.55,0,0,0,.27-.06.5.5,0,0,0,.2-.17.71.71,0,0,0,.09-.26l0-.09Zm1.45.77,0-.19a.54.54,0,0,1-.45.22.49.49,0,0,1-.3-.11A.52.52,0,0,1,277,265a1,1,0,0,1,0-.41,1.27,1.27,0,0,1,.15-.41.75.75,0,0,1,.27-.28.65.65,0,0,1,.34-.09.42.42,0,0,1,.22.06.39.39,0,0,1,.14.15l.14-.75h.25l-.38,2.09Zm-.64-.77a.62.62,0,0,0,0,.44.29.29,0,0,0,.25.15.41.41,0,0,0,.3-.13.76.76,0,0,0,.19-.42.68.68,0,0,0,0-.46.29.29,0,0,0-.26-.15.4.4,0,0,0-.3.13.82.82,0,0,0-.19.44Zm1.32,0a1,1,0,0,1,.34-.62.77.77,0,0,1,.49-.16.54.54,0,0,1,.46.22.71.71,0,0,1,.09.57,1.17,1.17,0,0,1-.17.46.79.79,0,0,1-.66.34.55.55,0,0,1-.46-.21.75.75,0,0,1-.08-.59Zm.25,0a.6.6,0,0,0,0,.44.32.32,0,0,0,.28.15.46.46,0,0,0,.33-.14.79.79,0,0,0,.2-.44.59.59,0,0,0,0-.43.32.32,0,0,0-.28-.15.46.46,0,0,0-.33.14.77.77,0,0,0-.2.43Zm2,.82.28-1.51h.22l0,.23a.79.79,0,0,1,.2-.21.31.31,0,0,1,.17,0,.41.41,0,0,1,.24.09l-.13.24a.3.3,0,0,0-.17-.06.27.27,0,0,0-.16,0,.35.35,0,0,0-.12.14,1.15,1.15,0,0,0-.1.3l-.15.79Zm2-.43.25,0a.81.81,0,0,1-.3.35.75.75,0,0,1-.44.11.55.55,0,0,1-.47-.23.74.74,0,0,1-.07-.58,1,1,0,0,1,.31-.59.74.74,0,0,1,.53-.19.52.52,0,0,1,.44.23.77.77,0,0,1,.07.59l0,.07-1.09,0a.53.53,0,0,0,.06.39.33.33,0,0,0,.28.15.42.42,0,0,0,.25-.06.62.62,0,0,0,.2-.23Zm-.73-.45.81,0a.47.47,0,0,0,0-.29.31.31,0,0,0-.28-.16.45.45,0,0,0-.31.11.58.58,0,0,0-.19.31Zm1.19.47.25,0a.31.31,0,0,0,.07.24.34.34,0,0,0,.25.09.42.42,0,0,0,.27-.06.27.27,0,0,0,.12-.17.14.14,0,0,0,0-.14.88.88,0,0,0-.23-.1,1.89,1.89,0,0,1-.35-.14.29.29,0,0,1-.13-.15.36.36,0,0,1,0-.2.46.46,0,0,1,.08-.19.51.51,0,0,1,.15-.14.61.61,0,0,1,.17-.07.77.77,0,0,1,.22,0,.76.76,0,0,1,.29.06.33.33,0,0,1,.16.15.5.5,0,0,1,0,.24l-.25,0a.24.24,0,0,0-.06-.19.3.3,0,0,0-.21-.07.44.44,0,0,0-.25,0,.21.21,0,0,0-.1.13.13.13,0,0,0,0,.09.17.17,0,0,0,.08.07l.2.07.34.13a.3.3,0,0,1,.14.14.36.36,0,0,1,0,.22.53.53,0,0,1-.12.24.59.59,0,0,1-.24.17.8.8,0,0,1-.32,0,.58.58,0,0,1-.41-.14.49.49,0,0,1-.12-.37Zm1.3,1.09.42-2.09h.22l0,.2a.71.71,0,0,1,.21-.17.53.53,0,0,1,.25,0,.47.47,0,0,1,.47.4,1,1,0,0,1,0,.4,1.18,1.18,0,0,1-.16.41.79.79,0,0,1-.29.28.66.66,0,0,1-.34.09.4.4,0,0,1-.34-.21l-.15.74Zm.49-1.32a.63.63,0,0,0,0,.44.29.29,0,0,0,.25.15.42.42,0,0,0,.31-.13.82.82,0,0,0,.21-.44.64.64,0,0,0,0-.44.28.28,0,0,0-.24-.16.42.42,0,0,0-.31.14.82.82,0,0,0-.21.44Zm2.28.36.25,0a.81.81,0,0,1-.3.35.74.74,0,0,1-.44.11.55.55,0,0,1-.47-.22.74.74,0,0,1-.07-.58,1,1,0,0,1,.31-.59.74.74,0,0,1,.53-.19.52.52,0,0,1,.44.23.76.76,0,0,1,.07.59v.07l-1.09,0a.53.53,0,0,0,.06.39.33.33,0,0,0,.28.15.42.42,0,0,0,.25-.06.61.61,0,0,0,.2-.23Zm-.73-.45.81,0a.48.48,0,0,0,0-.29.31.31,0,0,0-.28-.16.45.45,0,0,0-.31.11.57.57,0,0,0-.19.31Zm1.55-.84.06-.3h.25l-.06.3Zm-.36,1.79.3-1.51h.25l-.3,1.51Zm1.21-.18v.23l-.19,0a.37.37,0,0,1-.2-.05.2.2,0,0,1-.08-.12,1,1,0,0,1,0-.3l.17-.87h-.18l0-.2h.18l.08-.38.28-.14-.11.53h.25l0,.2h-.25l-.18.88a.49.49,0,0,0,0,.14.09.09,0,0,0,0,.05l.08,0Zm1.14.09a1.15,1.15,0,0,1-.3.16.8.8,0,0,1-.28,0,.45.45,0,0,1-.34-.14.36.36,0,0,1-.07-.32.49.49,0,0,1,.09-.2.52.52,0,0,1,.16-.14.71.71,0,0,1,.19-.08l.23,0a2.36,2.36,0,0,0,.46-.07v-.07a.26.26,0,0,0,0-.22.35.35,0,0,0-.26-.1.47.47,0,0,0-.27.05.49.49,0,0,0-.17.22l-.23,0a.77.77,0,0,1,.16-.26.59.59,0,0,1,.25-.14,1,1,0,0,1,.34,0,.78.78,0,0,1,.29.06.32.32,0,0,1,.15.12.36.36,0,0,1,0,.18,1.56,1.56,0,0,1,0,.24l-.07.34a3.88,3.88,0,0,0-.08.45.52.52,0,0,0,0,.18h-.26a.52.52,0,0,1,0-.19Zm.09-.57a2,2,0,0,1-.42.08l-.23,0a.27.27,0,0,0-.17.2.2.2,0,0,0,0,.17.27.27,0,0,0,.2.08.55.55,0,0,0,.27-.05.5.5,0,0,0,.2-.17.72.72,0,0,0,.09-.25l0-.09Zm1.31.09a1,1,0,0,1,.35-.61.76.76,0,0,1,.49-.15.54.54,0,0,1,.45.22.72.72,0,0,1,.08.57,1.18,1.18,0,0,1-.18.46.79.79,0,0,1-.67.33.54.54,0,0,1-.45-.22.76.76,0,0,1-.07-.59Zm.25,0a.61.61,0,0,0,0,.44.32.32,0,0,0,.28.16.45.45,0,0,0,.34-.13.8.8,0,0,0,.21-.44.59.59,0,0,0,0-.43.32.32,0,0,0-.28-.16.45.45,0,0,0-.34.13.77.77,0,0,0-.21.43Zm1.9,1.43.45-2.09h.22l0,.2a.71.71,0,0,1,.22-.16.53.53,0,0,1,.25,0,.49.49,0,0,1,.31.12.5.5,0,0,1,.15.29,1,1,0,0,1,0,.4,1.2,1.2,0,0,1-.17.41.78.78,0,0,1-.29.27.66.66,0,0,1-.34.08.4.4,0,0,1-.21-.07.41.41,0,0,1-.13-.15l-.16.74Zm.51-1.31a.63.63,0,0,0,0,.44.29.29,0,0,0,.24.16.41.41,0,0,0,.31-.13.83.83,0,0,0,.21-.44.64.64,0,0,0,0-.44.28.28,0,0,0-.24-.16.42.42,0,0,0-.31.14.83.83,0,0,0-.22.44Zm1.17.83.33-1.51h.22l0,.23a.78.78,0,0,1,.2-.2.3.3,0,0,1,.17,0,.41.41,0,0,1,.23.1l-.14.23a.29.29,0,0,0-.17-.07.26.26,0,0,0-.16,0,.35.35,0,0,0-.12.13,1.16,1.16,0,0,0-.11.3l-.17.79Zm1-.69a1,1,0,0,1,.36-.61.76.76,0,0,1,.49-.14.54.54,0,0,1,.44.23.72.72,0,0,1,.07.58,1.19,1.19,0,0,1-.18.45.78.78,0,0,1-.67.32.54.54,0,0,1-.45-.23.76.76,0,0,1-.06-.6Zm.25,0a.62.62,0,0,0,0,.44.32.32,0,0,0,.27.16.45.45,0,0,0,.34-.13.8.8,0,0,0,.22-.44.59.59,0,0,0,0-.43.32.32,0,0,0-.27-.16.45.45,0,0,0-.34.13.78.78,0,0,0-.22.43Zm1.61-.92.06-.3h.25l-.06.3Zm-.83,2.36.09-.21.11,0a.15.15,0,0,0,.12,0,.61.61,0,0,0,.09-.26l.35-1.59h.25l-.35,1.59a.9.9,0,0,1-.15.38.38.38,0,0,1-.33.13l-.19,0Zm2.16-1,.25,0a.81.81,0,0,1-.3.35.74.74,0,0,1-.44.1.55.55,0,0,1-.46-.23.75.75,0,0,1-.06-.58,1,1,0,0,1,.32-.58.73.73,0,0,1,.53-.18.51.51,0,0,1,.43.23.77.77,0,0,1,.06.59l0,.07-1.08-.06a.53.53,0,0,0,.05.39.33.33,0,0,0,.27.15.41.41,0,0,0,.25-.06.62.62,0,0,0,.2-.23Zm-.72-.46.81,0a.48.48,0,0,0,0-.29.31.31,0,0,0-.27-.17.44.44,0,0,0-.31.1.58.58,0,0,0-.2.31Z" style="fill:#231f20;fill-rule:evenodd"/><path d="M301.24,265.84l.23,0a.81.81,0,0,1-.29.4.66.66,0,0,1-.43.12.52.52,0,0,1-.43-.23.77.77,0,0,1-.05-.59,1.24,1.24,0,0,1,.17-.42.71.71,0,0,1,.3-.26.76.76,0,0,1,.37-.07.51.51,0,0,1,.36.15.49.49,0,0,1,.12.37l-.25,0a.36.36,0,0,0-.07-.24.26.26,0,0,0-.19-.09.44.44,0,0,0-.33.12.8.8,0,0,0-.21.43.66.66,0,0,0,0,.45.3.3,0,0,0,.26.16.39.39,0,0,0,.26-.08.57.57,0,0,0,.19-.28Zm.91.43,0,.23h-.19a.36.36,0,0,1-.2-.06.2.2,0,0,1-.08-.12,1,1,0,0,1,0-.3l.2-.87h-.18l0-.2H302l.09-.37.28-.13-.12.53.25,0,0,.2-.25,0-.21.88a.5.5,0,0,0,0,.14.09.09,0,0,0,0,.05l.08,0Zm.27-.51a1,1,0,0,1,.37-.6.75.75,0,0,1,.49-.13.54.54,0,0,1,.44.24.73.73,0,0,1,.06.58,1.19,1.19,0,0,1-.19.45.78.78,0,0,1-.67.31.54.54,0,0,1-.44-.24.77.77,0,0,1,0-.6Zm.25,0a.62.62,0,0,0,0,.44.32.32,0,0,0,.27.17.45.45,0,0,0,.34-.12.8.8,0,0,0,.22-.43.6.6,0,0,0,0-.43.32.32,0,0,0-.27-.17.45.45,0,0,0-.34.12.78.78,0,0,0-.22.42Zm2.92,1,0-.19a.53.53,0,0,1-.46.19.48.48,0,0,1-.29-.12.53.53,0,0,1-.16-.3,1,1,0,0,1,0-.42,1.29,1.29,0,0,1,.17-.4.75.75,0,0,1,.28-.27.63.63,0,0,1,.35-.07.41.41,0,0,1,.22.08.4.4,0,0,1,.13.16l.18-.75.24,0-.49,2.08-.23,0ZM305,266a.64.64,0,0,0,0,.44.29.29,0,0,0,.24.17.4.4,0,0,0,.3-.12.77.77,0,0,0,.21-.41.69.69,0,0,0,0-.46.29.29,0,0,0-.25-.17.4.4,0,0,0-.31.12.83.83,0,0,0-.21.43Zm2.32.48.24.06a.81.81,0,0,1-.31.34.73.73,0,0,1-.44.09.55.55,0,0,1-.45-.25.76.76,0,0,1,0-.59,1,1,0,0,1,.34-.57.72.72,0,0,1,.54-.16.51.51,0,0,1,.42.25.78.78,0,0,1,0,.6l0,.07-1.07-.1a.55.55,0,0,0,0,.39.33.33,0,0,0,.27.16.41.41,0,0,0,.25-.05.62.62,0,0,0,.21-.22Zm-.7-.49.8.08a.48.48,0,0,0,0-.29.31.31,0,0,0-.26-.18.44.44,0,0,0-.31.09.58.58,0,0,0-.21.3Zm3.53.53.25.1a1.18,1.18,0,0,1-.43.49.9.9,0,0,1-.57.13.8.8,0,0,1-.49-.19.7.7,0,0,1-.21-.43,1.46,1.46,0,0,1,0-.57,1.48,1.48,0,0,1,.26-.56,1.06,1.06,0,0,1,.94-.41.68.68,0,0,1,.46.21.7.7,0,0,1,.17.47l-.27,0a.55.55,0,0,0-.12-.35.45.45,0,0,0-.3-.14.7.7,0,0,0-.41.08.76.76,0,0,0-.29.29,1.47,1.47,0,0,0-.16.39,1.32,1.32,0,0,0,0,.47.48.48,0,0,0,.16.32.55.55,0,0,0,.31.13.63.63,0,0,0,.41-.1.86.86,0,0,0,.31-.38Zm.48,0a1,1,0,0,1,.39-.59.74.74,0,0,1,.49-.12.53.53,0,0,1,.43.26.74.74,0,0,1,0,.58,1.21,1.21,0,0,1-.21.45.77.77,0,0,1-.31.23.75.75,0,0,1-.37.05.54.54,0,0,1-.43-.26.78.78,0,0,1,0-.61Zm.25,0a.63.63,0,0,0,0,.45.32.32,0,0,0,.26.18.44.44,0,0,0,.34-.11.81.81,0,0,0,.24-.43.61.61,0,0,0,0-.44.32.32,0,0,0-.26-.18.44.44,0,0,0-.34.11.78.78,0,0,0-.24.42Zm1.17.91.56-2.08.24,0-.56,2.08-.24,0Zm1.56.19.06-.22a.62.62,0,0,1-.52.2.5.5,0,0,1-.22-.08.32.32,0,0,1-.13-.15.45.45,0,0,1,0-.2,1.45,1.45,0,0,1,0-.24l.25-.93.24,0-.22.83a1.69,1.69,0,0,0-.06.27.23.23,0,0,0,.05.17.25.25,0,0,0,.17.08.43.43,0,0,0,.22,0,.4.4,0,0,0,.18-.14,1,1,0,0,0,.12-.29l.22-.81.24,0-.4,1.51-.22,0Zm.57.07.4-1.51.22,0-.06.21a.67.67,0,0,1,.23-.16.54.54,0,0,1,.27,0,.4.4,0,0,1,.24.1.31.31,0,0,1,.09.21.61.61,0,0,1,.51-.21.37.37,0,0,1,.29.16.52.52,0,0,1,0,.39l-.28,1-.24,0,.25-.95a.75.75,0,0,0,0-.22.18.18,0,0,0-.06-.12.23.23,0,0,0-.13-.06.38.38,0,0,0-.28.08.57.57,0,0,0-.19.33l-.23.87-.24,0,.26-1a.43.43,0,0,0,0-.26.19.19,0,0,0-.17-.11.38.38,0,0,0-.2,0,.4.4,0,0,0-.17.15,1.11,1.11,0,0,0-.12.31l-.21.78-.24,0Zm2.52.33-.22,0,.59-2.07.24,0-.21.74a.55.55,0,0,1,.45-.15.51.51,0,0,1,.23.09.42.42,0,0,1,.15.18.69.69,0,0,1,0,.26,1.22,1.22,0,0,1-.4.88.65.65,0,0,1-.49.15.38.38,0,0,1-.33-.28l-.05.19Zm.21-.76a.81.81,0,0,0,0,.4.29.29,0,0,0,.25.24.4.4,0,0,0,.32-.11.81.81,0,0,0,.24-.42.67.67,0,0,0,0-.45.28.28,0,0,0-.23-.18.4.4,0,0,0-.31.11.79.79,0,0,0-.24.4Zm2.08.88a1.12,1.12,0,0,1-.31.14.78.78,0,0,1-.28,0,.44.44,0,0,1-.33-.17.38.38,0,0,1,0-.33.5.5,0,0,1,.11-.2.52.52,0,0,1,.17-.13.69.69,0,0,1,.2-.06h.22a2.26,2.26,0,0,0,.46,0l0-.07a.27.27,0,0,0,0-.23A.34.34,0,0,0,319,267a.45.45,0,0,0-.27,0,.49.49,0,0,0-.18.21l-.23-.07a.78.78,0,0,1,.18-.24.57.57,0,0,1,.26-.12,1,1,0,0,1,.34,0,.75.75,0,0,1,.28.09.32.32,0,0,1,.14.14.37.37,0,0,1,0,.18,1.58,1.58,0,0,1-.06.24l-.1.34a3.94,3.94,0,0,0-.11.45.55.55,0,0,0,0,.19l-.25,0a.53.53,0,0,1,0-.19Zm.14-.57a1.85,1.85,0,0,1-.42,0l-.23,0a.26.26,0,0,0-.12.07.27.27,0,0,0-.07.12.2.2,0,0,0,0,.18.27.27,0,0,0,.19.1.52.52,0,0,0,.27,0A.49.49,0,0,0,319,268a.74.74,0,0,0,.11-.25l0-.09Zm.4.87L320,267l.22,0-.06.21a.59.59,0,0,1,.53-.18.52.52,0,0,1,.22.08.31.31,0,0,1,.12.15.46.46,0,0,1,0,.2,1.65,1.65,0,0,1-.06.25l-.28.92-.24,0,.28-.91a.76.76,0,0,0,0-.24.2.2,0,0,0-.06-.14.27.27,0,0,0-.15-.07.43.43,0,0,0-.3.06.64.64,0,0,0-.23.37l-.25.82-.24,0Zm1.64-.53a1,1,0,0,1,.41-.58.73.73,0,0,1,.5-.1.53.53,0,0,1,.42.28.75.75,0,0,1,0,.59,1.22,1.22,0,0,1-.22.44.75.75,0,0,1-.32.22.73.73,0,0,1-.37,0,.53.53,0,0,1-.42-.28.79.79,0,0,1,0-.61Zm.25,0a.64.64,0,0,0,0,.45.32.32,0,0,0,.26.19.43.43,0,0,0,.34-.1.81.81,0,0,0,.25-.42.62.62,0,0,0,0-.44.32.32,0,0,0-.25-.19.44.44,0,0,0-.34.1.79.79,0,0,0-.25.41Z" style="fill:#231f20;fill-rule:evenodd"/><line x1="333.37" y1="263.91" x2="327.24" y2="274.78" style="fill:none;stroke:#ed1b2e;stroke-linecap:round;stroke-linejoin:round;stroke-width:1.0592727661132812px"/><path d="M177.91,163.86c34.49-.45,193.79,97.34,194.26,115.35l-9.87,15.13c-4.45-20.91-166.09-116.07-192.76-114.27l8.37-16.2Z" style="fill:#fff200;fill-rule:evenodd"/><path d="M371.45,280.49l-8.37,13M177.65,164.71l-7.78,14.42" style="fill:none;stroke:#231f20;stroke-linecap:round;stroke-linejoin:round;stroke-width:0.647901177406311px"/><path d="M168.55,179.48c6.4-4.34,53.45,16.62,102.68,46.3s96,63.41,91.78,69.7l-1.39,2.19-.64.5c.14-.1.84-1-.07-3.29-2.09-6.88-35.37-33.44-90.59-66.78-53.83-32.1-98.7-51.44-103.18-45.92l1.41-2.71ZM373.16,280.31c4-8-39.59-40.87-93.7-72.88-55.35-31.37-95.24-49.83-102.53-44.33l-1.62,2.95c0,.16.06-.2.4-.46,1.33-1.16,3.52-1.08,4.51-1.1,12.55.19,48.38,16.68,98.66,45.5,22,12.83,93.06,58.38,92.79,71.19,0,1.1.09,1.33-.32,1.87l1.81-2.75Z" style="fill:#fff200;stroke:#231f20;stroke-linecap:round;stroke-linejoin:round;stroke-width:0.6479316353797913px;fill-rule:evenodd"/><path d="M204.78,239.25A67.83,67.83,0,0,0,272,306.51a67.43,67.43,0,0,0,67.42-67.2h0V149.52l-134.64-.16v89.89Z" style="fill:#fff;stroke:#231f20;stroke-miterlimit:2.613100051879883;stroke-width:0.7596526145935059px"/><path d="M207.3,239.38v0h0a63.94,63.94,0,0,0,19,45.37,64.46,64.46,0,0,0,91.21.1,63.93,63.93,0,0,0,18.94-45.4h0V152.38l-129.08,0-.08,87Zm103.21-60.94v55.44l0,5.86h0a42.52,42.52,0,0,1-.27,4.8,37.65,37.65,0,0,1-11,22.35,38.55,38.55,0,0,1-27.27,11.27,39,39,0,0,1-38.39-38.6V178.3l77,.14Z" style="fill:#ed1c24;stroke:#231f20;stroke-miterlimit:2.613100051879883;stroke-width:0.5738998651504517px"/><path d="M263.79,229.49h0A9.46,9.46,0,0,0,266.3,236a8.07,8.07,0,0,0,12,0,9.46,9.46,0,0,0,2.5-6.46h0V217.3h-17l0,12.21Z" style="fill:#2e2c70"/><path d="M277.11,220.25a1.68,1.68,0,1,0,1.69,1.68,1.69,1.69,0,0,0-1.69-1.68Z" style="fill:#fff;fill-rule:evenodd"/><path d="M272.39,224.78a1.68,1.68,0,1,0,1.68,1.68,1.69,1.69,0,0,0-1.68-1.68Z" style="fill:#fff;fill-rule:evenodd"/><path d="M277.1,229.51a1.68,1.68,0,1,0,1.69,1.68,1.69,1.69,0,0,0-1.69-1.68Z" style="fill:#fff;fill-rule:evenodd"/><path d="M267.9,229.52a1.68,1.68,0,1,0,1.68,1.68,1.69,1.69,0,0,0-1.68-1.68Z" style="fill:#fff;fill-rule:evenodd"/><path d="M267.89,220.25a1.68,1.68,0,1,0,1.68,1.68,1.69,1.69,0,0,0-1.68-1.68Z" style="fill:#fff;fill-rule:evenodd"/><path d="M263.71,258.73h0a9.46,9.46,0,0,0,2.51,6.45,8.07,8.07,0,0,0,12,0,9.46,9.46,0,0,0,2.5-6.46h0V246.53h-17l0,12.21Z" style="fill:#2e2c70"/><path d="M277,249.49a1.68,1.68,0,1,0,1.68,1.68,1.69,1.69,0,0,0-1.68-1.68Z" style="fill:#fff;fill-rule:evenodd"/><path d="M272.31,254A1.68,1.68,0,1,0,274,255.7a1.69,1.69,0,0,0-1.68-1.68Z" style="fill:#fff;fill-rule:evenodd"/><path d="M277,258.74a1.68,1.68,0,1,0,1.68,1.68,1.69,1.69,0,0,0-1.68-1.68Z" style="fill:#fff;fill-rule:evenodd"/><path d="M267.82,258.76a1.68,1.68,0,1,0,1.68,1.68,1.69,1.69,0,0,0-1.68-1.68Z" style="fill:#fff;fill-rule:evenodd"/><path d="M267.8,249.48a1.68,1.68,0,1,0,1.68,1.68,1.69,1.69,0,0,0-1.68-1.68Z" style="fill:#fff;fill-rule:evenodd"/><path d="M240.2,229.55h0a9.46,9.46,0,0,0,2.51,6.45,8.07,8.07,0,0,0,12,0,9.46,9.46,0,0,0,2.5-6.46h0V217.36h-17l0,12.21Z" style="fill:#2e2c70"/><path d="M253.53,220.31a1.68,1.68,0,1,0,1.68,1.68,1.69,1.69,0,0,0-1.68-1.68Z" style="fill:#fff;fill-rule:evenodd"/><path d="M248.81,224.84a1.68,1.68,0,1,0,1.68,1.68,1.69,1.69,0,0,0-1.68-1.68Z" style="fill:#fff;fill-rule:evenodd"/><path d="M253.52,229.57a1.68,1.68,0,1,0,1.69,1.68,1.69,1.69,0,0,0-1.69-1.68Z" style="fill:#fff;fill-rule:evenodd"/><path d="M244.32,229.58a1.68,1.68,0,1,0,1.68,1.68,1.69,1.69,0,0,0-1.68-1.68Z" style="fill:#fff;fill-rule:evenodd"/><path d="M244.3,220.3A1.68,1.68,0,1,0,246,222a1.69,1.69,0,0,0-1.68-1.68Z" style="fill:#fff;fill-rule:evenodd"/><path d="M287.31,229.54h0a9.46,9.46,0,0,0,2.51,6.45,8.07,8.07,0,0,0,12,0,9.46,9.46,0,0,0,2.5-6.46h0V217.35h-17l0,12.21Z" style="fill:#2e2c70"/><path d="M300.64,220.3a1.68,1.68,0,1,0,1.69,1.68,1.69,1.69,0,0,0-1.69-1.68Z" style="fill:#fff;fill-rule:evenodd"/><path d="M295.91,224.83a1.68,1.68,0,1,0,1.68,1.68,1.69,1.69,0,0,0-1.68-1.68Z" style="fill:#fff;fill-rule:evenodd"/><path d="M300.63,229.56a1.68,1.68,0,1,0,1.69,1.68,1.69,1.69,0,0,0-1.69-1.68Z" style="fill:#fff;fill-rule:evenodd"/><path d="M291.43,229.57a1.68,1.68,0,1,0,1.68,1.68,1.69,1.69,0,0,0-1.68-1.68Z" style="fill:#fff;fill-rule:evenodd"/><path d="M291.41,220.29a1.68,1.68,0,1,0,1.68,1.68,1.69,1.69,0,0,0-1.68-1.68Z" style="fill:#fff;fill-rule:evenodd"/><path d="M263.78,200h0a9.46,9.46,0,0,0,2.51,6.45,8.07,8.07,0,0,0,12,0,9.46,9.46,0,0,0,2.5-6.46h0V187.8h-17l0,12.21Z" style="fill:#2e2c70"/><path d="M277.11,190.76a1.68,1.68,0,1,0,1.68,1.68,1.69,1.69,0,0,0-1.68-1.68Z" style="fill:#fff;fill-rule:evenodd"/><path d="M272.38,195.29a1.68,1.68,0,1,0,1.69,1.68,1.69,1.69,0,0,0-1.69-1.68Z" style="fill:#fff;fill-rule:evenodd"/><path d="M277.1,200a1.68,1.68,0,1,0,1.69,1.68A1.69,1.69,0,0,0,277.1,200Z" style="fill:#fff;fill-rule:evenodd"/><path d="M267.9,200a1.68,1.68,0,1,0,1.69,1.68A1.69,1.69,0,0,0,267.9,200Z" style="fill:#fff;fill-rule:evenodd"/><path d="M267.88,190.75a1.68,1.68,0,1,0,1.69,1.68,1.69,1.69,0,0,0-1.69-1.68Z" style="fill:#fff;fill-rule:evenodd"/><path d="M215.66,175.1c.15-6.26,4.6-7.74,4.63-7.76s4.8,1.6,4.78,7.82l-9.41-.06Z" style="fill:#fff200;fill-rule:evenodd"/><path d="M211.82,167.45l-.77,7.19h4.69c0-6,4.51-6.94,4.61-6.92s4.52,1.32,4.64,6.92h4.71l-.85-7.25-17,0Z" style="fill:#fff200;stroke:#231f20;stroke-miterlimit:2.613100051879883;stroke-width:0.5659778714179993px;fill-rule:evenodd"/><path d="M210.74,174.68H230a.83.83,0,0,1,.74.89h0a.83.83,0,0,1-.74.89H210.74a.83.83,0,0,1-.74-.89h0a.83.83,0,0,1,.74-.89Z" style="fill:#fff200;stroke:#231f20;stroke-miterlimit:2.613100051879883;stroke-width:0.5660396814346313px;fill-rule:evenodd"/><path d="M217.73,174.65c0-3.76,2.56-4.82,2.58-4.82a5,5,0,0,1,2.68,4.82Z" style="fill:#fff200;stroke:#231f20;stroke-miterlimit:2.613100051879883;stroke-width:0.5657514333724976px;fill-rule:evenodd"/><path d="M211.14,164.47h18.42a.76.76,0,0,1,.71.8h0a.76.76,0,0,1-.71.8H211.14a.76.76,0,0,1-.71-.8h0a.76.76,0,0,1,.71-.8Z" style="fill:#fff200;stroke:#231f20;stroke-miterlimit:2.613100051879883;stroke-width:0.5658028721809387px;fill-rule:evenodd"/><path d="M211.53,166.07h17.62a.75.75,0,0,1,.68.8h0a.75.75,0,0,1-.68.8H211.53a.75.75,0,0,1-.68-.8h0a.75.75,0,0,1,.68-.8Z" style="fill:#fff200;stroke:#231f20;stroke-miterlimit:2.613100051879883;stroke-width:0.5658028721809387px;fill-rule:evenodd"/><path d="M217.23,154.07h1.39v1h1v-1h1.43v1h1v-1h1.43v2.28a.59.59,0,0,1-.62.59h-5a.64.64,0,0,1-.65-.6v-2.25Z" style="fill:#fff200;stroke:#231f20;stroke-miterlimit:2.613100051879883;stroke-width:0.5656973123550415px;fill-rule:evenodd"/><polygon points="222.47 157.12 222.78 164.44 217.9 164.42 218.22 157.1 222.47 157.12 222.47 157.12" style="fill:#fff200;stroke:#231f20;stroke-miterlimit:2.613100051879883;stroke-width:0.5657543540000916px;fill-rule:evenodd"/><path d="M223.28,157.64h1.36v1h1v-1H227v1h1v-1h1.4v2.28a.59.59,0,0,1-.61.59h-4.9a.63.63,0,0,1-.63-.6v-2.25Z" style="fill:#fff200;stroke:#231f20;stroke-miterlimit:2.613100051879883;stroke-width:0.5656973719596863px;fill-rule:evenodd"/><polygon points="228.54 160.5 228.69 164.44 224.01 164.44 224.14 160.5 228.54 160.5 228.54 160.5" style="fill:#fff200;stroke:#231f20;stroke-miterlimit:2.613100051879883;stroke-width:0.5657029151916504px;fill-rule:evenodd"/><path d="M211.25,157.66h1.36v1h1v-1H215v1h1v-1h1.4v2.28a.59.59,0,0,1-.61.59h-4.9a.63.63,0,0,1-.63-.6v-2.25Z" style="fill:#fff200;stroke:#231f20;stroke-miterlimit:2.613100051879883;stroke-width:0.5656973719596863px;fill-rule:evenodd"/><polygon points="216.51 160.51 216.66 164.45 211.98 164.45 212.11 160.51 216.51 160.51 216.51 160.51" style="fill:#fff200;stroke:#231f20;stroke-miterlimit:2.613100051879883;stroke-width:0.5657029151916504px;fill-rule:evenodd"/><path d="M219.86,159.43a.49.49,0,1,1,1,0v1.74h-1v-1.74Z" style="fill:#231f20;fill-rule:evenodd"/><path d="M225.88,162a.47.47,0,1,1,.94,0v1.35h-.94V162Z" style="fill:#231f20;fill-rule:evenodd"/><path d="M213.82,162a.47.47,0,1,1,.94,0v1.35h-.94V162Z" style="fill:#231f20;fill-rule:evenodd"/><path d="M269.06,154.08h1.39v1h1v-1h1.43v1h1v-1h1.43v2.28a.59.59,0,0,1-.62.59h-5a.64.64,0,0,1-.65-.6v-2.25Z" style="fill:#fff200;stroke:#231f20;stroke-miterlimit:2.613100051879883;stroke-width:0.5656973123550415px;fill-rule:evenodd"/><polygon points="274.3 157.13 274.61 164.45 269.73 164.43 270.06 157.11 274.3 157.13 274.3 157.13" style="fill:#fff200;stroke:#231f20;stroke-miterlimit:2.613100051879883;stroke-width:0.5657543540000916px;fill-rule:evenodd"/><path d="M275.11,157.65h1.36v1h1v-1h1.39v1h1v-1h1.4v2.28a.59.59,0,0,1-.61.59h-4.9a.63.63,0,0,1-.63-.6v-2.25Z" style="fill:#fff200;stroke:#231f20;stroke-miterlimit:2.613100051879883;stroke-width:0.5656973719596863px;fill-rule:evenodd"/><polygon points="280.37 160.51 280.52 164.45 275.84 164.45 275.97 160.51 280.37 160.51 280.37 160.51" style="fill:#fff200;stroke:#231f20;stroke-miterlimit:2.613100051879883;stroke-width:0.5657029151916504px;fill-rule:evenodd"/><path d="M263.08,157.67h1.36v1h1v-1h1.39v1h1v-1h1.4v2.28a.59.59,0,0,1-.61.59h-4.9a.63.63,0,0,1-.63-.6v-2.25Z" style="fill:#fff200;stroke:#231f20;stroke-miterlimit:2.613100051879883;stroke-width:0.5656973719596863px;fill-rule:evenodd"/><polygon points="268.34 160.52 268.49 164.46 263.81 164.46 263.94 160.52 268.34 160.52 268.34 160.52" style="fill:#fff200;stroke:#231f20;stroke-miterlimit:2.613100051879883;stroke-width:0.5657029151916504px;fill-rule:evenodd"/><path d="M267.49,175.11c.15-6.26,4.6-7.74,4.63-7.76s4.8,1.6,4.78,7.82l-9.41-.06Z" style="fill:#fff200;fill-rule:evenodd"/><path d="M263.66,167.46l-.77,7.19h4.69c0-6,4.51-6.94,4.61-6.92s4.52,1.31,4.64,6.92h4.71l-.85-7.25-17,0Z" style="fill:#fff200;stroke:#231f20;stroke-miterlimit:2.613100051879883;stroke-width:0.5659778714179993px;fill-rule:evenodd"/><path d="M262.57,174.69h19.21a.83.83,0,0,1,.74.89h0a.83.83,0,0,1-.74.89H262.57a.83.83,0,0,1-.74-.89h0a.83.83,0,0,1,.74-.89Z" style="fill:#fff200;stroke:#231f20;stroke-miterlimit:2.613100051879883;stroke-width:0.5660396814346313px;fill-rule:evenodd"/><path d="M269.56,174.66c0-3.76,2.56-4.82,2.58-4.82a5,5,0,0,1,2.68,4.82Z" style="fill:#fff200;stroke:#231f20;stroke-miterlimit:2.613100051879883;stroke-width:0.5657514333724976px;fill-rule:evenodd"/><path d="M263,164.48H281.4a.76.76,0,0,1,.71.8h0a.76.76,0,0,1-.71.8H263a.76.76,0,0,1-.71-.8h0a.76.76,0,0,1,.71-.8Z" style="fill:#fff200;stroke:#231f20;stroke-miterlimit:2.613100051879883;stroke-width:0.5658028721809387px;fill-rule:evenodd"/><path d="M263.37,166.08H281a.75.75,0,0,1,.68.8h0a.75.75,0,0,1-.68.8H263.37a.75.75,0,0,1-.67-.8h0a.75.75,0,0,1,.67-.8Z" style="fill:#fff200;stroke:#231f20;stroke-miterlimit:2.613100051879883;stroke-width:0.5658028721809387px;fill-rule:evenodd"/><path d="M271.7,159.44a.49.49,0,1,1,1,0v1.74h-1v-1.74Z" style="fill:#231f20;fill-rule:evenodd"/><path d="M277.72,162a.47.47,0,1,1,.94,0v1.35h-.94V162Z" style="fill:#231f20;fill-rule:evenodd"/><path d="M265.65,162a.47.47,0,1,1,.94,0v1.35h-.94V162Z" style="fill:#231f20;fill-rule:evenodd"/><path d="M320.32,154.11h1.39v1h1v-1h1.43v1h1v-1h1.43v2.28a.59.59,0,0,1-.62.59h-5a.64.64,0,0,1-.65-.6v-2.25Z" style="fill:#fff200;stroke:#231f20;stroke-miterlimit:2.613100051879883;stroke-width:0.5656973123550415px;fill-rule:evenodd"/><polygon points="325.56 157.16 325.87 164.48 320.99 164.46 321.31 157.15 325.56 157.16 325.56 157.16" style="fill:#fff200;stroke:#231f20;stroke-miterlimit:2.613100051879883;stroke-width:0.5657543540000916px;fill-rule:evenodd"/><path d="M326.37,157.69h1.36v1h1v-1h1.39v1h1v-1h1.4V160a.59.59,0,0,1-.61.59H327a.63.63,0,0,1-.63-.6v-2.25Z" style="fill:#fff200;stroke:#231f20;stroke-miterlimit:2.613100051879883;stroke-width:0.5656973719596863px;fill-rule:evenodd"/><polygon points="331.63 160.54 331.78 164.48 327.1 164.49 327.23 160.54 331.63 160.54 331.63 160.54" style="fill:#fff200;stroke:#231f20;stroke-miterlimit:2.613100051879883;stroke-width:0.5657029151916504px;fill-rule:evenodd"/><path d="M314.34,157.7h1.36v1h1v-1h1.39v1h1v-1h1.4V160a.59.59,0,0,1-.61.59H315a.63.63,0,0,1-.63-.6V157.7Z" style="fill:#fff200;stroke:#231f20;stroke-miterlimit:2.613100051879883;stroke-width:0.5656973719596863px;fill-rule:evenodd"/><polygon points="319.6 160.55 319.75 164.5 315.07 164.5 315.2 160.55 319.6 160.55 319.6 160.55" style="fill:#fff200;stroke:#231f20;stroke-miterlimit:2.613100051879883;stroke-width:0.5657029151916504px;fill-rule:evenodd"/><path d="M318.75,175.15c.15-6.26,4.6-7.74,4.63-7.76s4.8,1.6,4.78,7.82l-9.41-.06Z" style="fill:#fff200;fill-rule:evenodd"/><path d="M314.92,167.5l-.77,7.19h4.69c0-6,4.51-6.94,4.61-6.92s4.52,1.31,4.64,6.92h4.71l-.85-7.25-17,0Z" style="fill:#fff200;stroke:#231f20;stroke-miterlimit:2.613100051879883;stroke-width:0.5659778714179993px;fill-rule:evenodd"/><path d="M313.83,174.73H333a.83.83,0,0,1,.74.89h0a.83.83,0,0,1-.74.89H313.83a.83.83,0,0,1-.74-.89h0a.83.83,0,0,1,.74-.89Z" style="fill:#fff200;stroke:#231f20;stroke-miterlimit:2.613100051879883;stroke-width:0.5660396814346313px;fill-rule:evenodd"/><path d="M320.82,174.69c0-3.76,2.56-4.82,2.58-4.82a5,5,0,0,1,2.68,4.82Z" style="fill:#fff200;stroke:#231f20;stroke-miterlimit:2.613100051879883;stroke-width:0.5657514333724976px;fill-rule:evenodd"/><path d="M314.23,164.52h18.42a.76.76,0,0,1,.71.8h0a.76.76,0,0,1-.71.8H314.23a.76.76,0,0,1-.71-.8h0a.76.76,0,0,1,.71-.8Z" style="fill:#fff200;stroke:#231f20;stroke-miterlimit:2.613100051879883;stroke-width:0.5658028721809387px;fill-rule:evenodd"/><path d="M314.62,166.11h17.62a.75.75,0,0,1,.68.8h0a.75.75,0,0,1-.68.8H314.62a.75.75,0,0,1-.68-.8h0a.75.75,0,0,1,.68-.8Z" style="fill:#fff200;stroke:#231f20;stroke-miterlimit:2.613100051879883;stroke-width:0.5658028721809387px;fill-rule:evenodd"/><path d="M323,159.47a.49.49,0,1,1,1,0v1.74h-1v-1.74Z" style="fill:#231f20;fill-rule:evenodd"/><path d="M329,162a.47.47,0,1,1,.94,0v1.35H329V162Z" style="fill:#231f20;fill-rule:evenodd"/><path d="M316.91,162a.47.47,0,1,1,.94,0v1.35h-.94V162Z" style="fill:#231f20;fill-rule:evenodd"/><path d="M217.25,206.58h1.39v1h1v-1h1.43v1h1v-1h1.43v2.28a.59.59,0,0,1-.62.59h-5a.64.64,0,0,1-.65-.6v-2.25Z" style="fill:#fff200;stroke:#231f20;stroke-miterlimit:2.613100051879883;stroke-width:0.5227382183074951px;fill-rule:evenodd"/><polygon points="222.49 209.63 222.81 216.95 217.93 216.93 218.25 209.61 222.49 209.63 222.49 209.63" style="fill:#fff200;stroke:#231f20;stroke-miterlimit:2.613100051879883;stroke-width:0.5621644258499146px;fill-rule:evenodd"/><path d="M223.3,210.15h1.36v1h1v-1h1.39v1h1v-1h1.4v2.28a.59.59,0,0,1-.61.59h-4.9a.63.63,0,0,1-.63-.6v-2.25Z" style="fill:#fff200;stroke:#231f20;stroke-miterlimit:2.613100051879883;stroke-width:0.532735288143158px;fill-rule:evenodd"/><polygon points="228.56 213.01 228.71 216.95 224.03 216.95 224.16 213.01 228.56 213.01 228.56 213.01" style="fill:#fff200;stroke:#231f20;stroke-miterlimit:2.613100051879883;stroke-width:0.5227677822113037px;fill-rule:evenodd"/><path d="M211.28,210.17h1.36v1h1v-1H215v1h1v-1h1.4v2.28a.59.59,0,0,1-.61.59h-4.9a.63.63,0,0,1-.63-.6v-2.25Z" style="fill:#fff200;stroke:#231f20;stroke-miterlimit:2.613100051879883;stroke-width:0.532735288143158px;fill-rule:evenodd"/><polygon points="216.53 213.02 216.68 216.96 212 216.96 212.13 213.02 216.53 213.02 216.53 213.02" style="fill:#fff200;stroke:#231f20;stroke-miterlimit:2.613100051879883;stroke-width:0.5227677822113037px;fill-rule:evenodd"/><path d="M215.69,227.61c.15-6.26,4.6-7.74,4.63-7.76s4.8,1.6,4.78,7.82l-9.41-.06Z" style="fill:#fff200;fill-rule:evenodd"/><path d="M211.85,220l-.77,7.19h4.69c0-6,4.51-6.94,4.61-6.92s4.52,1.31,4.64,6.92h4.71l-.85-7.25-17,0Z" style="fill:#fff200;stroke:#231f20;stroke-miterlimit:2.613100051879883;stroke-width:0.5623824000358582px;fill-rule:evenodd"/><path d="M210.76,227.19H230a.83.83,0,0,1,.74.89h0a.83.83,0,0,1-.74.89H210.76a.83.83,0,0,1-.74-.89h0a.83.83,0,0,1,.74-.89Z" style="fill:#fff200;stroke:#231f20;stroke-miterlimit:2.613100051879883;stroke-width:0.5623930096626282px;fill-rule:evenodd"/><path d="M217.75,227.16c0-3.76,2.56-4.82,2.58-4.82a5,5,0,0,1,2.68,4.82Z" style="fill:#fff200;stroke:#231f20;stroke-miterlimit:2.613100051879883;stroke-width:0.558620035648346px;fill-rule:evenodd"/><path d="M211.17,217h18.42a.76.76,0,0,1,.71.8h0a.76.76,0,0,1-.71.8H211.17a.76.76,0,0,1-.71-.8h0a.76.76,0,0,1,.71-.8Z" style="fill:#fff200;stroke:#231f20;stroke-miterlimit:2.613100051879883;stroke-width:0.5621577501296997px;fill-rule:evenodd"/><path d="M211.56,218.58h17.62a.75.75,0,0,1,.68.8h0a.75.75,0,0,1-.68.8H211.56a.75.75,0,0,1-.68-.8h0a.75.75,0,0,1,.68-.8Z" style="fill:#fff200;stroke:#231f20;stroke-miterlimit:2.613100051879883;stroke-width:0.5621577501296997px;fill-rule:evenodd"/><path d="M219.89,211.94a.49.49,0,1,1,1,0v1.74h-1v-1.74Z" style="fill:#231f20;fill-rule:evenodd"/><path d="M225.91,214.46a.47.47,0,1,1,.94,0v1.35h-.94v-1.35Z" style="fill:#231f20;fill-rule:evenodd"/><path d="M213.84,214.47a.47.47,0,1,1,.94,0v1.35h-.94v-1.35Z" style="fill:#231f20;fill-rule:evenodd"/><path d="M317.29,262l1,1-.7.7.72.72.71-.71,1,1-.71.71.72.72.71-.71,1,1L320.13,268a.59.59,0,0,1-.86,0l-3.54-3.54a.64.64,0,0,1,0-.88l1.59-1.6Z" style="fill:#fff200;stroke:#231f20;stroke-miterlimit:2.613100051879883;stroke-width:0.5658199191093445px;fill-rule:evenodd"/><polygon points="318.84 267.84 313.89 273.23 310.45 269.77 315.85 264.83 318.84 267.84 318.84 267.84" style="fill:#fff200;stroke:#231f20;stroke-miterlimit:2.613100051879883;stroke-width:0.5719416737556458px;fill-rule:evenodd"/><path d="M319,268.78l1,1-.7.7.7.7.71-.71,1,1-.71.71.7.7.71-.71,1,1-1.61,1.61a.59.59,0,0,1-.85,0l-3.46-3.46a.63.63,0,0,1,0-.87l1.59-1.6Z" style="fill:#fff200;stroke:#231f20;stroke-miterlimit:2.613100051879883;stroke-width:0.5668925642967224px;fill-rule:evenodd"/><polygon points="320.75 274.52 318.06 277.41 314.75 274.11 317.64 271.41 320.75 274.52 320.75 274.52" style="fill:#fff200;stroke:#231f20;stroke-miterlimit:2.613100051879883;stroke-width:0.5657204985618591px;fill-rule:evenodd"/><path d="M310.53,260.29l1,1-.7.7.7.7.71-.71,1,1-.71.71.71.7.71-.71,1,1-1.61,1.61a.59.59,0,0,1-.85,0L309,262.75a.63.63,0,0,1,0-.87l1.59-1.6Z" style="fill:#fff200;stroke:#231f20;stroke-miterlimit:2.613100051879883;stroke-width:0.5668925642967224px;fill-rule:evenodd"/><polygon points="312.23 266.02 309.55 268.91 306.24 265.61 309.12 262.91 312.23 266.02 312.23 266.02" style="fill:#fff200;stroke:#231f20;stroke-miterlimit:2.613100051879883;stroke-width:0.5657204985618591px;fill-rule:evenodd"/><path d="M301.31,275.74c4.54-4.32,8.72-2.23,8.76-2.22s2.26,4.52-2.15,8.91l-6.61-6.69Z" style="fill:#fff200;fill-rule:evenodd"/><path d="M304,267.62l-5.63,4.54,3.31,3.33c4.24-4.18,8.1-1.72,8.16-1.63s2.27,4.13-1.61,8.17l3.33,3.33,4.52-5.73-12.07-12Z" style="fill:#fff200;stroke:#231f20;stroke-miterlimit:2.613100051879883;stroke-width:0.5659949779510498px;fill-rule:evenodd"/><path d="M298.13,272l13.59,13.59a.83.83,0,0,1-.11,1.15h0a.83.83,0,0,1-1.15.11l-13.59-13.59a.83.83,0,0,1,.11-1.15h0a.83.83,0,0,1,1.15-.11Z" style="fill:#fff200;stroke:#231f20;stroke-miterlimit:2.613100051879883;stroke-width:0.5696543455123901px;fill-rule:evenodd"/><path d="M303.1,276.88c2.67-2.64,5.22-1.59,5.23-1.58a5,5,0,0,1-1.51,5.3l-3.72-3.72Z" style="fill:#fff200;stroke:#231f20;stroke-miterlimit:2.613100051879883;stroke-width:0.5651450753211975px;fill-rule:evenodd"/><path d="M305.64,265l13,13a.76.76,0,0,1-.07,1.06h0a.76.76,0,0,1-1.06.07l-13-13a.76.76,0,0,1,.07-1.06h0a.76.76,0,0,1,1.06-.07Z" style="fill:#fff200;stroke:#231f20;stroke-miterlimit:2.613100051879883;stroke-width:0.565802812576294px;fill-rule:evenodd"/><path d="M304.78,266.44l12.46,12.46a.75.75,0,0,1-.09,1h0a.75.75,0,0,1-1,.09l-12.46-12.46a.75.75,0,0,1,.09-1h0a.75.75,0,0,1,1-.09Z" style="fill:#fff200;stroke:#231f20;stroke-miterlimit:2.613100051879883;stroke-width:0.565802812576294px;fill-rule:evenodd"/><path d="M315.37,267.48a.49.49,0,1,1,.69.69l-1.23,1.23-.69-.69,1.23-1.23Z" style="fill:#231f20;fill-rule:evenodd"/><path d="M317.84,273.52a.47.47,0,1,1,.66.66l-1,1-.66-.66,1-1Z" style="fill:#231f20;fill-rule:evenodd"/><path d="M309.3,265a.47.47,0,1,1,.66.66l-1,1-.66-.66,1-1Z" style="fill:#231f20;fill-rule:evenodd"/><path d="M320.24,206.59h1.39v1h1v-1h1.43v1h1v-1h1.43v2.28a.59.59,0,0,1-.62.59h-5a.64.64,0,0,1-.65-.6v-2.25Z" style="fill:#fff200;stroke:#231f20;stroke-miterlimit:2.613100051879883;stroke-width:0.5656973123550415px;fill-rule:evenodd"/><polygon points="325.48 209.64 325.79 216.96 320.91 216.94 321.24 209.62 325.48 209.64 325.48 209.64" style="fill:#fff200;stroke:#231f20;stroke-miterlimit:2.613100051879883;stroke-width:0.5657543540000916px;fill-rule:evenodd"/><path d="M326.29,210.16h1.36v1h1v-1H330v1h1v-1h1.4v2.28a.59.59,0,0,1-.61.59h-4.9a.63.63,0,0,1-.63-.6v-2.25Z" style="fill:#fff200;stroke:#231f20;stroke-miterlimit:2.613100051879883;stroke-width:0.5656973719596863px;fill-rule:evenodd"/><polygon points="331.55 213.02 331.7 216.96 327.02 216.96 327.15 213.02 331.55 213.02 331.55 213.02" style="fill:#fff200;stroke:#231f20;stroke-miterlimit:2.613100051879883;stroke-width:0.5657029151916504px;fill-rule:evenodd"/><path d="M314.26,210.18h1.36v1h1v-1H318v1h1v-1h1.4v2.28a.59.59,0,0,1-.61.59h-4.9a.63.63,0,0,1-.63-.6v-2.25Z" style="fill:#fff200;stroke:#231f20;stroke-miterlimit:2.613100051879883;stroke-width:0.5656973719596863px;fill-rule:evenodd"/><polygon points="319.52 213.03 319.67 216.97 314.99 216.97 315.12 213.03 319.52 213.03 319.52 213.03" style="fill:#fff200;stroke:#231f20;stroke-miterlimit:2.613100051879883;stroke-width:0.5657029151916504px;fill-rule:evenodd"/><path d="M318.67,227.62c.15-6.26,4.6-7.74,4.63-7.76s4.8,1.6,4.78,7.82l-9.41-.06Z" style="fill:#fff200;fill-rule:evenodd"/><path d="M314.84,220l-.77,7.19h4.69c0-6,4.51-6.94,4.61-6.92s4.52,1.31,4.64,6.92h4.71l-.85-7.25-17,0Z" style="fill:#fff200;stroke:#231f20;stroke-miterlimit:2.613100051879883;stroke-width:0.5659778714179993px;fill-rule:evenodd"/><path d="M313.75,227.2H333a.82.82,0,0,1,.74.89h0a.83.83,0,0,1-.74.89H313.75a.83.83,0,0,1-.74-.89h0a.83.83,0,0,1,.74-.89Z" style="fill:#fff200;stroke:#231f20;stroke-miterlimit:2.613100051879883;stroke-width:0.5660396814346313px;fill-rule:evenodd"/><path d="M320.74,227.17c0-3.76,2.56-4.82,2.58-4.82a5,5,0,0,1,2.68,4.82Z" style="fill:#fff200;stroke:#231f20;stroke-miterlimit:2.613100051879883;stroke-width:0.5657514333724976px;fill-rule:evenodd"/><path d="M314.16,217h18.42a.76.76,0,0,1,.71.8h0a.76.76,0,0,1-.71.8H314.16a.76.76,0,0,1-.71-.8h0a.76.76,0,0,1,.71-.8Z" style="fill:#fff200;stroke:#231f20;stroke-miterlimit:2.613100051879883;stroke-width:0.5658028721809387px;fill-rule:evenodd"/><path d="M314.55,218.59h17.62a.75.75,0,0,1,.68.8h0a.75.75,0,0,1-.68.8H314.55a.75.75,0,0,1-.68-.8h0a.75.75,0,0,1,.68-.8Z" style="fill:#fff200;stroke:#231f20;stroke-miterlimit:2.613100051879883;stroke-width:0.5658028721809387px;fill-rule:evenodd"/><path d="M322.88,212a.49.49,0,1,1,1,0v1.74h-1V212Z" style="fill:#231f20;fill-rule:evenodd"/><path d="M328.9,214.47a.47.47,0,1,1,.94,0v1.35h-.94v-1.35Z" style="fill:#231f20;fill-rule:evenodd"/><path d="M316.83,214.48a.47.47,0,1,1,.94,0v1.35h-.94v-1.35Z" style="fill:#231f20;fill-rule:evenodd"/><path d="M222.33,266.32l1-1,.7.7.72-.72-.71-.71,1-1,.71.71.72-.72-.71-.71,1-1,1.61,1.61a.59.59,0,0,1,0,.86l-3.54,3.54a.64.64,0,0,1-.88,0l-1.6-1.59Z" style="fill:#fff200;stroke:#231f20;stroke-miterlimit:2.613100051879883;stroke-width:0.5657148957252502px;fill-rule:evenodd"/><polygon points="228.2 264.77 233.59 269.72 230.13 273.16 225.19 267.76 228.2 264.77 228.2 264.77" style="fill:#fff200;stroke:#231f20;stroke-miterlimit:2.613100051879883;stroke-width:0.5657598376274109px;fill-rule:evenodd"/><path d="M229.14,264.57l1-1,.7.7.7-.7-.71-.71,1-1,.71.71.7-.7-.71-.71,1-1,1.61,1.61a.59.59,0,0,1,0,.85l-3.46,3.46a.63.63,0,0,1-.87,0l-1.6-1.59Z" style="fill:#fff200;stroke:#231f20;stroke-miterlimit:2.613100051879883;stroke-width:0.565714955329895px;fill-rule:evenodd"/><polygon points="234.88 262.87 237.77 265.55 234.47 268.86 231.77 265.98 234.88 262.87 234.88 262.87" style="fill:#fff200;stroke:#231f20;stroke-miterlimit:2.613100051879883;stroke-width:0.5657204985618591px;fill-rule:evenodd"/><path d="M220.65,273.08l1-1,.7.7.7-.7-.71-.71,1-1,.71.71.7-.7-.71-.71,1-1,1.61,1.61a.59.59,0,0,1,0,.85l-3.46,3.46a.63.63,0,0,1-.87,0l-1.6-1.59Z" style="fill:#fff200;stroke:#231f20;stroke-miterlimit:2.613100051879883;stroke-width:0.565714955329895px;fill-rule:evenodd"/><polygon points="226.38 271.38 229.27 274.06 225.97 277.37 223.27 274.49 226.38 271.38 226.38 271.38" style="fill:#fff200;stroke:#231f20;stroke-miterlimit:2.613100051879883;stroke-width:0.5657204985618591px;fill-rule:evenodd"/><path d="M236.1,282.3c-4.32-4.54-2.23-8.72-2.22-8.76s4.52-2.26,8.91,2.15l-6.69,6.61Z" style="fill:#fff200;fill-rule:evenodd"/><path d="M228,279.6l4.54,5.63,3.33-3.31c-4.18-4.24-1.72-8.1-1.63-8.16s4.13-2.27,8.18,1.61l3.33-3.33L240,267.53,228,279.6Z" style="fill:#fff200;stroke:#231f20;stroke-miterlimit:2.613100051879883;stroke-width:0.5659939050674438px;fill-rule:evenodd"/><path d="M232.32,285.48l13.59-13.59a.83.83,0,0,1,1.15.11h0a.83.83,0,0,1,.11,1.15l-13.59,13.59a.83.83,0,0,1-1.15-.11h0a.82.82,0,0,1-.11-1.15Z" style="fill:#fff200;stroke:#231f20;stroke-miterlimit:2.613100051879883;stroke-width:0.5660556554794312px;fill-rule:evenodd"/><path d="M237.24,280.52c-2.64-2.67-1.59-5.22-1.58-5.23a5,5,0,0,1,5.3,1.51l-3.72,3.72Z" style="fill:#fff200;stroke:#231f20;stroke-miterlimit:2.613100051879883;stroke-width:0.5657339692115784px;fill-rule:evenodd"/><path d="M225.39,278l13-13a.76.76,0,0,1,1.06.07h0a.76.76,0,0,1,.07,1.06l-13,13a.76.76,0,0,1-1.06-.07h0a.76.76,0,0,1-.07-1.06Z" style="fill:#fff200;stroke:#231f20;stroke-miterlimit:2.613100051879883;stroke-width:0.565802812576294px;fill-rule:evenodd"/><path d="M226.8,278.83l12.46-12.46a.75.75,0,0,1,1,.09h0a.75.75,0,0,1,.09,1L227.92,280a.75.75,0,0,1-1-.09h0a.75.75,0,0,1-.09-1Z" style="fill:#fff200;stroke:#231f20;stroke-miterlimit:2.613100051879883;stroke-width:0.565802812576294px;fill-rule:evenodd"/><path d="M228,268.1a.49.49,0,1,1,.69-.69l1.23,1.23-.69.69L228,268.1Z" style="fill:#231f20;fill-rule:evenodd"/><path d="M234,265.62a.47.47,0,1,1,.66-.66l1,1-.66.66-1-1Z" style="fill:#231f20;fill-rule:evenodd"/><path d="M225.51,274.16a.47.47,0,1,1,.66-.66l1,1-.66.66-1-1Z" style="fill:#231f20;fill-rule:evenodd"/></svg>